<mxfile host="Electron" modified="2024-05-08T14:26:35.503Z" agent="Mozilla/5.0 (Windows NT 10.0; Win64; x64) AppleWebKit/537.36 (KHTML, like Gecko) draw.io/21.6.8 Chrome/114.0.5735.289 Electron/25.5.0 Safari/537.36" etag="BRcNreSQuGNpdosRwcon" version="21.6.8" type="device">
  <diagram id="C5RBs43oDa-KdzZeNtuy" name="Page-1">
    <mxGraphModel dx="1036" dy="622" grid="1" gridSize="10" guides="1" tooltips="1" connect="1" arrows="1" fold="1" page="1" pageScale="1" pageWidth="827" pageHeight="1169" math="0" shadow="0">
      <root>
        <mxCell id="WIyWlLk6GJQsqaUBKTNV-0" />
        <mxCell id="WIyWlLk6GJQsqaUBKTNV-1" parent="WIyWlLk6GJQsqaUBKTNV-0" />
        <mxCell id="Jz7He2cMQxeZmk7UIjyq-20" value="" style="endArrow=doubleBlock;html=1;rounded=0;entryX=0;entryY=0;entryDx=0;entryDy=0;endFill=0;" parent="WIyWlLk6GJQsqaUBKTNV-1" target="Jz7He2cMQxeZmk7UIjyq-45" edge="1">
          <mxGeometry width="50" height="50" relative="1" as="geometry">
            <mxPoint x="110" y="130" as="sourcePoint" />
            <mxPoint x="145.0000000000001" y="170" as="targetPoint" />
          </mxGeometry>
        </mxCell>
        <mxCell id="Jz7He2cMQxeZmk7UIjyq-23" value="True" style="edgeStyle=orthogonalEdgeStyle;rounded=0;orthogonalLoop=1;jettySize=auto;html=1;" parent="WIyWlLk6GJQsqaUBKTNV-1" source="Jz7He2cMQxeZmk7UIjyq-22" edge="1">
          <mxGeometry relative="1" as="geometry">
            <mxPoint x="370" y="395" as="targetPoint" />
          </mxGeometry>
        </mxCell>
        <mxCell id="Jz7He2cMQxeZmk7UIjyq-22" value="OrarioCorrente&lt;br&gt;&amp;nbsp;?= &lt;br&gt;OrarioErogazione" style="rhombus;whiteSpace=wrap;html=1;" parent="WIyWlLk6GJQsqaUBKTNV-1" vertex="1">
          <mxGeometry x="66" y="350" width="190" height="90" as="geometry" />
        </mxCell>
        <mxCell id="Jz7He2cMQxeZmk7UIjyq-24" value="Erogazione" style="swimlane;whiteSpace=wrap;html=1;" parent="WIyWlLk6GJQsqaUBKTNV-1" vertex="1">
          <mxGeometry x="370" y="330" width="360" height="200" as="geometry" />
        </mxCell>
        <mxCell id="Jz7He2cMQxeZmk7UIjyq-36" value="True&lt;br&gt;" style="edgeStyle=orthogonalEdgeStyle;rounded=0;orthogonalLoop=1;jettySize=auto;html=1;" parent="Jz7He2cMQxeZmk7UIjyq-24" source="Jz7He2cMQxeZmk7UIjyq-28" edge="1">
          <mxGeometry relative="1" as="geometry">
            <mxPoint y="190" as="targetPoint" />
            <Array as="points">
              <mxPoint x="270" y="190" />
            </Array>
          </mxGeometry>
        </mxCell>
        <mxCell id="Jz7He2cMQxeZmk7UIjyq-28" value="pesoCorrente &lt;br&gt;?=&lt;br&gt;pesoImpostato" style="rhombus;whiteSpace=wrap;html=1;rounded=0;" parent="Jz7He2cMQxeZmk7UIjyq-24" vertex="1">
          <mxGeometry x="210" y="60" width="130" height="110" as="geometry" />
        </mxCell>
        <mxCell id="Jz7He2cMQxeZmk7UIjyq-32" style="edgeStyle=orthogonalEdgeStyle;rounded=0;orthogonalLoop=1;jettySize=auto;html=1;entryX=0.5;entryY=0;entryDx=0;entryDy=0;" parent="Jz7He2cMQxeZmk7UIjyq-24" source="Jz7He2cMQxeZmk7UIjyq-25" target="Jz7He2cMQxeZmk7UIjyq-28" edge="1">
          <mxGeometry relative="1" as="geometry">
            <mxPoint x="282.48251585623666" y="35.0232558139536" as="targetPoint" />
            <mxPoint x="77.51" y="60" as="sourcePoint" />
            <Array as="points">
              <mxPoint x="77" y="35" />
              <mxPoint x="275" y="35" />
            </Array>
          </mxGeometry>
        </mxCell>
        <mxCell id="Jz7He2cMQxeZmk7UIjyq-25" value="Eroga" style="rounded=0;whiteSpace=wrap;html=1;" parent="Jz7He2cMQxeZmk7UIjyq-24" vertex="1">
          <mxGeometry x="40" y="85" width="90" height="60" as="geometry" />
        </mxCell>
        <mxCell id="Jz7He2cMQxeZmk7UIjyq-30" value="False" style="edgeStyle=orthogonalEdgeStyle;rounded=0;orthogonalLoop=1;jettySize=auto;html=1;entryX=1;entryY=0.5;entryDx=0;entryDy=0;" parent="Jz7He2cMQxeZmk7UIjyq-24" source="Jz7He2cMQxeZmk7UIjyq-28" target="Jz7He2cMQxeZmk7UIjyq-25" edge="1">
          <mxGeometry relative="1" as="geometry" />
        </mxCell>
        <mxCell id="Jz7He2cMQxeZmk7UIjyq-44" value="" style="group" parent="WIyWlLk6GJQsqaUBKTNV-1" vertex="1" connectable="0">
          <mxGeometry x="370" y="100" width="360" height="200" as="geometry" />
        </mxCell>
        <mxCell id="WIyWlLk6GJQsqaUBKTNV-7" value="WeigthSetup()" style="rounded=0;whiteSpace=wrap;html=1;fontSize=12;glass=0;strokeWidth=1;shadow=0;" parent="Jz7He2cMQxeZmk7UIjyq-44" vertex="1">
          <mxGeometry x="20" y="90" width="120" height="40" as="geometry" />
        </mxCell>
        <mxCell id="Jz7He2cMQxeZmk7UIjyq-0" value="TimeSetup()" style="rounded=0;whiteSpace=wrap;html=1;fontSize=12;glass=0;strokeWidth=1;shadow=0;" parent="Jz7He2cMQxeZmk7UIjyq-44" vertex="1">
          <mxGeometry x="200" y="90" width="120" height="40" as="geometry" />
        </mxCell>
        <mxCell id="Jz7He2cMQxeZmk7UIjyq-5" style="edgeStyle=orthogonalEdgeStyle;rounded=0;orthogonalLoop=1;jettySize=auto;html=1;entryX=0.5;entryY=0;entryDx=0;entryDy=0;curved=1;exitX=0.5;exitY=0;exitDx=0;exitDy=0;" parent="Jz7He2cMQxeZmk7UIjyq-44" edge="1">
          <mxGeometry relative="1" as="geometry">
            <mxPoint x="270" y="131" as="sourcePoint" />
            <mxPoint x="90" y="131" as="targetPoint" />
            <Array as="points">
              <mxPoint x="270" y="170" />
              <mxPoint x="90" y="170" />
            </Array>
          </mxGeometry>
        </mxCell>
        <mxCell id="Jz7He2cMQxeZmk7UIjyq-6" value="Push Button" style="edgeLabel;html=1;align=center;verticalAlign=middle;resizable=0;points=[];" parent="Jz7He2cMQxeZmk7UIjyq-5" vertex="1" connectable="0">
          <mxGeometry x="0.0099" y="1" relative="1" as="geometry">
            <mxPoint as="offset" />
          </mxGeometry>
        </mxCell>
        <mxCell id="Jz7He2cMQxeZmk7UIjyq-7" style="edgeStyle=orthogonalEdgeStyle;rounded=0;orthogonalLoop=1;jettySize=auto;html=1;entryX=0.5;entryY=0;entryDx=0;entryDy=0;curved=1;exitX=0.5;exitY=0;exitDx=0;exitDy=0;" parent="Jz7He2cMQxeZmk7UIjyq-44" edge="1">
          <mxGeometry relative="1" as="geometry">
            <mxPoint x="89" y="90" as="sourcePoint" />
            <mxPoint x="269" y="90" as="targetPoint" />
            <Array as="points">
              <mxPoint x="89" y="50" />
              <mxPoint x="269" y="50" />
            </Array>
          </mxGeometry>
        </mxCell>
        <mxCell id="Jz7He2cMQxeZmk7UIjyq-8" value="Push Button" style="edgeLabel;html=1;align=center;verticalAlign=middle;resizable=0;points=[];" parent="Jz7He2cMQxeZmk7UIjyq-7" vertex="1" connectable="0">
          <mxGeometry x="0.0099" y="1" relative="1" as="geometry">
            <mxPoint as="offset" />
          </mxGeometry>
        </mxCell>
        <mxCell id="Jz7He2cMQxeZmk7UIjyq-21" value="SetupMode()" style="swimlane;whiteSpace=wrap;html=1;" parent="Jz7He2cMQxeZmk7UIjyq-44" vertex="1">
          <mxGeometry width="360" height="200" as="geometry" />
        </mxCell>
        <mxCell id="Jz7He2cMQxeZmk7UIjyq-47" value="=1" style="edgeStyle=orthogonalEdgeStyle;rounded=0;orthogonalLoop=1;jettySize=auto;html=1;" parent="WIyWlLk6GJQsqaUBKTNV-1" source="Jz7He2cMQxeZmk7UIjyq-45" edge="1">
          <mxGeometry relative="1" as="geometry">
            <mxPoint x="370" y="195" as="targetPoint" />
          </mxGeometry>
        </mxCell>
        <mxCell id="Jz7He2cMQxeZmk7UIjyq-55" value="=0" style="edgeStyle=orthogonalEdgeStyle;rounded=0;orthogonalLoop=1;jettySize=auto;html=1;entryX=0.49;entryY=0.25;entryDx=0;entryDy=0;entryPerimeter=0;" parent="WIyWlLk6GJQsqaUBKTNV-1" edge="1">
          <mxGeometry relative="1" as="geometry">
            <mxPoint x="160" y="219" as="sourcePoint" />
            <mxPoint x="160" y="269" as="targetPoint" />
          </mxGeometry>
        </mxCell>
        <mxCell id="Jz7He2cMQxeZmk7UIjyq-45" value="SwitchValue" style="rhombus;whiteSpace=wrap;html=1;" parent="WIyWlLk6GJQsqaUBKTNV-1" vertex="1">
          <mxGeometry x="120" y="160" width="80" height="70" as="geometry" />
        </mxCell>
        <mxCell id="Jz7He2cMQxeZmk7UIjyq-56" style="edgeStyle=orthogonalEdgeStyle;rounded=0;orthogonalLoop=1;jettySize=auto;html=1;entryX=0.5;entryY=0;entryDx=0;entryDy=0;" parent="WIyWlLk6GJQsqaUBKTNV-1" source="Jz7He2cMQxeZmk7UIjyq-54" target="Jz7He2cMQxeZmk7UIjyq-22" edge="1">
          <mxGeometry relative="1" as="geometry" />
        </mxCell>
        <mxCell id="Jz7He2cMQxeZmk7UIjyq-54" value="Stampa su display" style="whiteSpace=wrap;html=1;" parent="WIyWlLk6GJQsqaUBKTNV-1" vertex="1">
          <mxGeometry x="111" y="270" width="100" height="40" as="geometry" />
        </mxCell>
        <mxCell id="Jz7He2cMQxeZmk7UIjyq-57" value="" style="curved=1;endArrow=classic;html=1;rounded=0;entryX=0;entryY=0.5;entryDx=0;entryDy=0;" parent="WIyWlLk6GJQsqaUBKTNV-1" target="Jz7He2cMQxeZmk7UIjyq-45" edge="1">
          <mxGeometry width="50" height="50" relative="1" as="geometry">
            <mxPoint x="370" y="520" as="sourcePoint" />
            <mxPoint x="270" y="470" as="targetPoint" />
            <Array as="points">
              <mxPoint x="90" y="530" />
              <mxPoint x="10" y="380" />
              <mxPoint x="40" y="190" />
            </Array>
          </mxGeometry>
        </mxCell>
      </root>
    </mxGraphModel>
  </diagram>
</mxfile>
